<?xml version="1.0" standalone="no"?>
<!DOCTYPE svg PUBLIC "-//W3C//DTD SVG 20010904//EN"
 "http://www.w3.org/TR/2001/REC-SVG-20010904/DTD/svg10.dtd">
<svg version="1.0" xmlns="http://www.w3.org/2000/svg"
 width="449.000000pt" height="449.000000pt" viewBox="0 0 449.000000 449.000000"
 preserveAspectRatio="xMidYMid meet">
<metadata>
Created by potrace 1.14, written by Peter Selinger 2001-2017
</metadata>
<g transform="translate(0.000000,449.000000) scale(0.100000,-0.100000)"
fill="#000000" stroke="none">
<path d="M2095 4484 c-300 -22 -581 -97 -840 -223 -229 -112 -400 -233 -584
-414 -190 -186 -326 -375 -441 -612 -106 -217 -168 -416 -206 -660 -23 -152
-23 -479 0 -630 77 -493 291 -920 632 -1259 182 -182 356 -307 589 -421 231
-114 459 -184 700 -215 50 -6 123 -18 164 -27 81 -17 274 -14 322 5 14 6 82
20 151 31 648 110 1201 477 1540 1023 57 92 159 292 179 353 8 22 26 52 41 67
30 31 58 114 93 283 66 312 65 599 -1 915 -30 142 -61 243 -83 267 -9 10 -25
45 -36 78 -26 78 -130 291 -185 380 -351 565 -928 944 -1580 1039 -106 15
-363 27 -455 20z m381 -323 c89 -45 168 -108 245 -196 56 -64 165 -222 158
-230 -9 -8 -288 -45 -396 -51 l-113 -7 0 261 c0 217 2 262 14 262 7 0 49 -18
92 -39z m-356 -226 l0 -255 -42 0 c-52 0 -302 28 -386 44 l-62 11 49 75 c72
108 152 202 226 263 63 52 175 117 201 117 12 0 14 -47 14 -255z m-565 138
c-30 -38 -83 -116 -118 -174 l-63 -106 -125 39 c-68 22 -128 43 -133 48 -18
17 213 147 383 216 58 24 107 43 108 44 2 0 -22 -30 -52 -67z m1590 -62 c116
-60 225 -129 225 -141 0 -8 -198 -70 -220 -70 -8 1 -37 38 -64 84 -26 46 -72
116 -101 154 l-53 71 51 -20 c29 -11 102 -46 162 -78z m-2152 -355 c63 -25
147 -55 188 -67 41 -12 77 -23 81 -25 3 -2 -10 -48 -29 -102 -19 -53 -55 -175
-79 -271 -24 -96 -45 -176 -47 -178 -2 -2 -162 -2 -355 -1 l-351 3 48 100 c88
184 202 350 346 503 42 45 78 82 80 82 2 0 55 -20 118 -44z m2668 -33 c151
-157 306 -389 384 -575 l15 -38 -329 0 -329 0 -6 38 c-15 81 -67 273 -105 387
-23 65 -37 122 -33 126 4 4 63 25 132 48 69 23 139 48 155 56 48 22 58 18 116
-42z m-2008 -147 c105 -19 358 -46 422 -46 l45 0 0 -210 0 -210 -375 0 c-206
0 -375 3 -375 8 1 37 96 357 131 439 16 38 23 44 42 40 12 -4 62 -13 110 -21z
m1376 -56 c33 -87 81 -247 105 -347 l14 -63 -389 0 -389 0 0 208 0 209 118 6
c127 7 310 29 419 51 37 8 73 14 80 15 6 0 25 -35 42 -79z m-1911 -1980 c4
-45 80 -323 116 -424 20 -55 35 -101 33 -102 -1 -1 -36 -12 -77 -24 -41 -12
-122 -40 -179 -62 l-103 -40 -65 63 c-143 141 -265 306 -365 494 l-63 120 350
0 351 0 2 -25z m2022 1 c0 -46 -118 -430 -140 -455 -5 -4 -61 1 -127 12 -129
23 -256 38 -405 48 l-97 6 -3 207 -3 206 388 -3 c366 -2 387 -3 387 -21z m846
-88 c-100 -191 -217 -352 -350 -482 l-65 -65 -158 54 c-87 29 -159 54 -161 55
-1 1 20 69 47 151 27 82 61 204 77 271 l28 123 320 3 c177 1 322 3 322 5 1 1
-26 -51 -60 -115z m-1866 -97 l0 -204 -82 -6 c-145 -12 -270 -27 -389 -47 -64
-10 -121 -19 -126 -19 -6 0 -33 69 -61 153 -45 134 -63 199 -86 300 l-6 27
375 0 375 0 0 -204z m0 -716 l0 -260 -27 11 c-85 32 -155 81 -244 169 -101
100 -220 264 -203 279 14 15 298 52 447 60 l27 1 0 -260z m410 250 c144 -13
332 -40 343 -49 10 -9 -73 -136 -144 -220 -99 -119 -259 -231 -328 -231 l-31
0 0 255 0 255 23 0 c12 0 74 -5 137 -10z m-1120 -167 c18 -32 57 -93 86 -136
30 -43 54 -80 54 -82 0 -2 -28 8 -62 22 -139 56 -345 170 -331 183 9 9 191 69
210 70 6 0 26 -26 43 -57z m1832 30 c48 -14 88 -29 88 -32 0 -13 -320 -191
-344 -191 -2 0 24 42 58 94 33 52 69 108 78 125 9 17 20 31 24 31 4 0 47 -12
96 -27z"/>
</g>
</svg>
